<?xml version="1.0" encoding="utf-8"?>
<!-- Generator: Adobe Illustrator 23.0.0, SVG Export Plug-In . SVG Version: 6.00 Build 0)  -->
<svg version="1.1" id="Capa_1" xmlns="http://www.w3.org/2000/svg" xmlns:xlink="http://www.w3.org/1999/xlink" x="0px" y="0px"
	 viewBox="0 0 289 66.8" style="enable-background:new 0 0 289 66.8;" xml:space="preserve">
<style type="text/css">
	.st0{fill:#FFFFFF;}
</style>
<g>
	<path class="st0" d="M24.6,60.7h-9l1.5-8.7H12L9,60.7H0l10.9-32.6c0.1-0.1,0.3-0.6,0.5-1.4c0.3-0.8,0.6-1.8,1.1-2.9
		c0.3-0.6,0.6-1.3,0.8-2.1c0.2-0.4,0.4-0.7,0.5-1.1c0.1-0.4,0.3-0.7,0.5-1.1c0.3-0.6,0.6-1.2,0.8-1.8c0.3-0.6,0.6-1.1,0.8-1.6
		c0.7-1.5,1.5-2.7,2.2-3.7c0.7-1,1.4-1.5,2.1-1.5h11.7L24.6,60.7z M14.8,43.3h3.8l4-23.1L14.8,43.3z"/>
	<path class="st0" d="M39.9,49.9c0.1-0.3,0.2-1,0.4-2.2c0.1-0.7,0.1-1.4,0.1-2.1c0-0.8-0.1-1.5-0.3-2.2c-0.1-0.4-0.3-0.9-0.5-1.5
		c-0.2-0.6-0.5-1.3-0.8-2v-0.1c-0.6-1.3-1.3-2.7-2-4.2c-0.7-1.5-1.3-3-1.9-4.5c-0.5-1.2-0.7-2.2-0.8-3.1c-0.2-1.5-0.3-3-0.2-4.3
		c0-0.4,0-0.7,0-1.1c0-0.3,0.1-0.7,0.1-1c0.1-1.3,0.3-2,0.4-2.2v-0.1c0-0.1,0.1-0.5,0.4-1.1c0.2-0.7,0.6-1.4,1.1-2.3
		c0.5-0.9,1.2-1.7,2.1-2.6c0.9-0.9,2-1.5,3.4-2c1.2-0.4,2.5-0.6,3.9-0.6h3.5c0.6,0,1.1,0.1,1.7,0.2c0.5,0.1,1.1,0.2,1.6,0.5
		c0.6,0.2,1.2,0.5,1.7,0.9c0.8,0.7,1.4,1.5,1.9,2.6c0.5,1.1,0.5,2.6,0.1,4.4l-1,4.4h-9l0.5-2.2c0.1-0.6,0.2-1,0-1.3
		c-0.1-0.3-0.3-0.5-0.4-0.7c-0.2-0.1-0.4-0.2-0.8-0.3c-0.4,0-0.8,0.1-1,0.3c-0.3,0.2-0.5,0.4-0.7,0.7c-0.2,0.3-0.3,0.5-0.4,0.7
		c-0.1,0.2-0.1,0.4-0.1,0.5v0.1c0,0.1-0.1,0.4-0.1,0.7c0,0.4-0.1,0.8-0.1,1.4c0,0.6-0.1,1.2,0,2c0,0.7,0.1,1.5,0.2,2.3
		c0.2,0.9,0.6,1.9,1,3.1c0,0.1,0.1,0.3,0.2,0.5c0.5,1.3,1.1,2.6,1.8,4c0.7,1.4,1.2,2.8,1.8,4.2c0.2,0.7,0.4,1.3,0.6,1.9
		c0.2,0.6,0.3,1.1,0.4,1.6c0.3,1.4,0.4,2.9,0.3,4.3c0,0.4,0,0.8,0,1.2c0,0.4-0.1,0.7-0.1,1.1c-0.1,0.5-0.2,0.9-0.2,1.3
		c0,0.3-0.1,0.6-0.1,0.7V52c-0.3,1.2-0.7,2.3-1.2,3.2c-0.5,0.9-1.1,1.6-1.8,2.3c-0.7,0.6-1.3,1.1-2,1.5c-0.7,0.4-1.4,0.7-2.1,0.9
		c-0.5,0.2-1,0.4-1.5,0.5c-0.5,0.1-0.9,0.2-1.3,0.2c-0.4,0-0.8,0.1-1.2,0.1H34c-0.6,0-1.2-0.1-1.8-0.2c-0.5-0.1-1.1-0.2-1.6-0.5
		s-1.1-0.5-1.6-0.9c-0.8-0.6-1.4-1.5-1.9-2.6c-0.5-1.1-0.5-2.6-0.1-4.5l1.3-5.7h9L37,47.7l-0.5,2.2c0,0.1,0,0.2,0,0.5
		c0,0.2,0,0.4,0,0.7c0,0.3,0.2,0.5,0.4,0.7c0.2,0.2,0.5,0.3,0.9,0.3s0.8-0.1,1-0.3c0.3-0.2,0.5-0.4,0.6-0.7c0.2-0.3,0.3-0.5,0.4-0.7
		C39.9,50.2,39.9,50,39.9,49.9z"/>
	<path class="st0" d="M78.5,19.5H67.6L65,31.2h10.9l-2,8.7H63l-2.8,12.2h10.9l-2,8.7l-19.9-0.1l11.4-49.9h19.9L78.5,19.5z"/>
	<path class="st0" d="M86.9,49.9c0.1-0.3,0.2-1,0.4-2.2c0.1-0.7,0.1-1.4,0.1-2.1c0-0.8-0.1-1.5-0.3-2.2c-0.1-0.4-0.3-0.9-0.5-1.5
		c-0.2-0.6-0.5-1.3-0.8-2v-0.1c-0.6-1.3-1.3-2.7-2-4.2c-0.7-1.5-1.3-3-1.9-4.5c-0.5-1.2-0.7-2.2-0.8-3.1c-0.2-1.5-0.3-3-0.2-4.3
		c0-0.4,0-0.7,0-1.1c0-0.3,0.1-0.7,0.1-1c0.1-1.3,0.3-2,0.4-2.2v-0.1c0-0.1,0.1-0.5,0.4-1.1c0.2-0.7,0.6-1.4,1.1-2.3
		c0.5-0.9,1.2-1.7,2.1-2.6c0.9-0.9,2-1.5,3.4-2c1.2-0.4,2.5-0.6,3.9-0.6h3.5c0.6,0,1.1,0.1,1.7,0.2c0.5,0.1,1.1,0.2,1.6,0.5
		c0.6,0.2,1.2,0.5,1.7,0.9c0.8,0.7,1.4,1.5,1.9,2.6c0.5,1.1,0.5,2.6,0.1,4.4l-1,4.4h-9l0.5-2.2c0.1-0.6,0.2-1,0-1.3
		c-0.1-0.3-0.3-0.5-0.4-0.7c-0.2-0.1-0.4-0.2-0.8-0.3c-0.4,0-0.8,0.1-1,0.3c-0.3,0.2-0.5,0.4-0.7,0.7c-0.2,0.3-0.3,0.5-0.4,0.7
		c-0.1,0.2-0.1,0.4-0.1,0.5v0.1c0,0.1-0.1,0.4-0.1,0.7c0,0.4-0.1,0.8-0.1,1.4c0,0.6-0.1,1.2,0,2c0,0.7,0.1,1.5,0.2,2.3
		c0.2,0.9,0.6,1.9,1,3.1c0,0.1,0.1,0.3,0.2,0.5c0.5,1.3,1.1,2.6,1.8,4c0.7,1.4,1.2,2.8,1.8,4.2c0.2,0.7,0.4,1.3,0.6,1.9
		c0.2,0.6,0.3,1.1,0.4,1.6c0.3,1.4,0.4,2.9,0.3,4.3c0,0.4,0,0.8,0,1.2c0,0.4-0.1,0.7-0.1,1.1c-0.1,0.5-0.2,0.9-0.2,1.3
		c0,0.3-0.1,0.6-0.1,0.7V52c-0.3,1.2-0.7,2.3-1.2,3.2c-0.5,0.9-1.1,1.6-1.8,2.3c-0.7,0.6-1.3,1.1-2,1.5c-0.7,0.4-1.4,0.7-2.1,0.9
		c-0.5,0.2-1,0.4-1.5,0.5c-0.5,0.1-0.9,0.2-1.3,0.2c-0.4,0-0.8,0.1-1.2,0.1H81c-0.6,0-1.2-0.1-1.8-0.2c-0.5-0.1-1.1-0.2-1.6-0.5
		s-1.1-0.5-1.6-0.9c-0.8-0.6-1.4-1.5-1.9-2.6c-0.5-1.1-0.5-2.6-0.1-4.5l1.3-5.7h9l-0.4,1.4l-0.5,2.2c0,0.1,0,0.2,0,0.5
		c0,0.2,0,0.4,0,0.7c0,0.3,0.2,0.5,0.4,0.7c0.2,0.2,0.5,0.3,0.9,0.3s0.8-0.1,1-0.3c0.3-0.2,0.5-0.4,0.6-0.7c0.2-0.3,0.3-0.5,0.4-0.7
		C86.8,50.2,86.9,50,86.9,49.9z"/>
	<path class="st0" d="M119.7,52c-0.3,1.2-0.7,2.3-1.2,3.2c-0.5,0.9-1.1,1.6-1.8,2.3c-0.7,0.6-1.3,1.1-2.1,1.5
		c-0.7,0.4-1.4,0.7-2.1,0.9c-0.6,0.2-1.1,0.4-1.5,0.5c-0.5,0.1-0.9,0.2-1.3,0.2c-0.4,0-0.8,0.1-1.2,0.1h-3.4c-0.6,0-1.2-0.1-1.8-0.2
		c-0.5-0.1-1.1-0.2-1.7-0.5c-0.6-0.2-1.2-0.5-1.7-0.9c-0.8-0.6-1.4-1.5-1.9-2.6c-0.5-1.1-0.5-2.6-0.1-4.5l7.4-32.5v-0.1
		c0,0,0.2-0.4,0.4-1.1c0.2-0.7,0.6-1.4,1.1-2.3c0.5-0.8,1.2-1.7,2.1-2.6c0.9-0.9,2-1.6,3.4-2.1c1.1-0.4,2.4-0.6,3.9-0.6h3.5
		c0.6,0,1.2,0.1,1.8,0.2c0.5,0.1,1.1,0.3,1.6,0.5c0.6,0.2,1.1,0.5,1.6,0.9c0.8,0.6,1.5,1.5,2,2.6c0.5,1.1,0.5,2.6,0.1,4.5L119.7,52z
		 M107.7,49.9c0,0.1,0,0.2,0,0.5c0,0.2,0,0.4,0,0.7c0,0.3,0.2,0.5,0.3,0.7c0.2,0.2,0.5,0.3,0.9,0.3s0.8-0.1,1-0.3
		c0.3-0.2,0.5-0.4,0.7-0.7c0.2-0.3,0.3-0.5,0.4-0.7c0.1-0.2,0.1-0.4,0.1-0.5l6.4-28.2c0.1-0.6,0.2-1,0.1-1.3
		c-0.1-0.3-0.2-0.5-0.4-0.7c-0.2-0.1-0.5-0.2-0.8-0.3c-0.4,0-0.7,0.1-1,0.3c-0.3,0.2-0.5,0.4-0.7,0.7c-0.2,0.3-0.3,0.5-0.4,0.7
		c-0.1,0.2-0.2,0.4-0.2,0.5v0.1L107.7,49.9z"/>
	<path class="st0" d="M134,10.8h12.5c0.6,0,1.2,0,1.8,0.1c0.5,0.1,1.1,0.3,1.6,0.5c0.6,0.2,1.2,0.5,1.7,0.9c0.8,0.6,1.4,1.5,1.9,2.6
		c0.5,1.1,0.5,2.6,0.1,4.5l-2.7,11.8c-0.2,1-0.5,1.9-1,2.7c-0.1,0.3-0.3,0.6-0.5,0.9c-0.2,0.3-0.3,0.5-0.5,0.7
		c-0.5,0.6-1,1.1-1.5,1.6c-0.5,0.4-1.1,0.8-1.6,1.2c0.1,0.1,0.2,0.2,0.2,0.2c0,0,0.1,0.1,0.2,0.2c0.7,0.7,1.2,1.5,1.6,2.6
		c0.4,1.1,0.3,2.4,0,4.1l-3.5,15.5h-9l3.8-16.9c0.1-0.6,0.2-1,0.1-1.3c-0.1-0.3-0.2-0.5-0.4-0.7c-0.2-0.2-0.4-0.3-0.7-0.3h-1.9
		l-4.3,19.2h-9L134,10.8z M138.3,31.1h1.8c0.3,0,0.5-0.1,0.8-0.2c0.2-0.1,0.5-0.3,0.7-0.5c0.2-0.2,0.4-0.6,0.6-1
		c0,0,0.1-0.5,0.3-1.3c0.2-0.8,0.4-1.7,0.6-2.6c0.2-1,0.4-1.8,0.6-2.6c0.2-0.8,0.3-1.2,0.3-1.3c0.2-1,0.1-1.7-0.3-2
		c-0.2-0.2-0.4-0.3-0.8-0.3H141L138.3,31.1z"/>
	<path class="st0" d="M156.5,60.7h-9l11.3-49.9h9L156.5,60.7L156.5,60.7z"/>
	<path class="st0" d="M183.5,60.7h-9L176,52h-5.2l-2.9,8.7h-9l10.9-32.6c0.1-0.1,0.3-0.6,0.5-1.4c0.3-0.8,0.6-1.8,1.1-2.9
		c0.3-0.6,0.6-1.3,0.8-2.1c0.2-0.4,0.4-0.7,0.5-1.1c0.1-0.4,0.3-0.7,0.5-1.1c0.3-0.6,0.6-1.2,0.8-1.8c0.3-0.6,0.6-1.1,0.8-1.6
		c0.7-1.5,1.5-2.7,2.2-3.7c0.7-1,1.4-1.5,2.1-1.5h11.7L183.5,60.7z M173.7,43.3h3.8l4-23.1L173.7,43.3z"/>
	<path class="st0" d="M198.7,49.9c0.1-0.3,0.2-1,0.4-2.2c0.1-0.7,0.1-1.4,0.1-2.1c0-0.8-0.1-1.5-0.3-2.2c-0.1-0.4-0.3-0.9-0.5-1.5
		c-0.2-0.6-0.5-1.3-0.8-2v-0.1c-0.6-1.3-1.3-2.7-2-4.2c-0.7-1.5-1.3-3-1.9-4.5c-0.5-1.2-0.7-2.2-0.8-3.1c-0.2-1.5-0.3-3-0.2-4.3
		c0-0.4,0-0.7,0-1.1c0-0.3,0.1-0.7,0.1-1c0.1-1.3,0.3-2,0.3-2.2v-0.1c0-0.1,0.1-0.5,0.4-1.1c0.2-0.7,0.6-1.4,1.1-2.3
		c0.5-0.9,1.2-1.7,2.1-2.6c0.9-0.9,2-1.5,3.4-2c1.2-0.4,2.5-0.6,3.9-0.6h3.5c0.6,0,1.1,0.1,1.7,0.2c0.5,0.1,1.1,0.2,1.6,0.5
		c0.6,0.2,1.2,0.5,1.7,0.9c0.8,0.7,1.4,1.5,1.9,2.6c0.5,1.1,0.5,2.6,0.1,4.4l-1,4.4h-9l0.5-2.2c0.1-0.6,0.2-1,0-1.3
		c-0.1-0.3-0.3-0.5-0.4-0.7c-0.2-0.1-0.4-0.2-0.8-0.3c-0.4,0-0.8,0.1-1,0.3c-0.3,0.2-0.5,0.4-0.7,0.7c-0.2,0.3-0.3,0.5-0.4,0.7
		c-0.1,0.2-0.1,0.4-0.1,0.5v0.1c0,0.1-0.1,0.4-0.1,0.7c0,0.4-0.1,0.8-0.1,1.4c0,0.6-0.1,1.2,0,2c0,0.7,0.1,1.5,0.2,2.3
		c0.2,0.9,0.6,1.9,1,3.1c0,0.1,0.1,0.3,0.2,0.5c0.5,1.3,1.1,2.6,1.8,4c0.7,1.4,1.2,2.8,1.8,4.2c0.2,0.7,0.4,1.3,0.6,1.9
		c0.2,0.6,0.3,1.1,0.4,1.6c0.3,1.4,0.4,2.9,0.3,4.3c0,0.4,0,0.8,0,1.2c0,0.4-0.1,0.7-0.1,1.1c-0.1,0.5-0.2,0.9-0.2,1.3
		c0,0.3-0.1,0.6-0.1,0.7V52c-0.3,1.2-0.7,2.3-1.2,3.2c-0.5,0.9-1.1,1.6-1.8,2.3c-0.7,0.6-1.3,1.1-2,1.5c-0.7,0.4-1.4,0.7-2.1,0.9
		c-0.5,0.2-1,0.4-1.5,0.5s-0.9,0.2-1.3,0.2c-0.4,0-0.8,0.1-1.2,0.1h-3.4c-0.6,0-1.2-0.1-1.8-0.2c-0.5-0.1-1.1-0.2-1.6-0.5
		s-1.1-0.5-1.6-0.9c-0.8-0.6-1.4-1.5-1.9-2.6c-0.5-1.1-0.5-2.6-0.1-4.5l1.3-5.7h9l-0.3,1.4l-0.5,2.2c0,0.1,0,0.2,0,0.5s0,0.4,0,0.7
		c0,0.3,0.2,0.5,0.4,0.7c0.2,0.2,0.5,0.3,0.9,0.3s0.8-0.1,1-0.3c0.3-0.2,0.5-0.4,0.6-0.7c0.2-0.3,0.3-0.5,0.4-0.7
		C198.7,50.2,198.7,50,198.7,49.9z"/>
	<path class="st0" d="M226.5,19.5l-2.7,11.8h12.5l-2,8.7h-12.5l-4.7,20.8h-9l11.3-49.9h21.6l-2,8.7H226.5z"/>
	<path class="st0" d="M262.4,25.8l-9,0.1l1-4.2c0.1-0.6,0.2-1,0-1.3c-0.1-0.3-0.3-0.5-0.5-0.7c-0.2-0.1-0.5-0.2-0.8-0.3
		c-0.4,0-0.8,0.1-1,0.3c-0.3,0.2-0.5,0.4-0.7,0.7c-0.2,0.3-0.3,0.5-0.4,0.7c-0.1,0.2-0.1,0.4-0.2,0.5l-6.2,28.3V50c0,0,0,0.2,0,0.4
		c0,0.2,0,0.4,0,0.7c0,0.3,0.2,0.5,0.4,0.7c0.2,0.2,0.5,0.3,0.9,0.3s0.8-0.1,1-0.3c0.3-0.2,0.5-0.4,0.6-0.7c0.2-0.3,0.3-0.5,0.4-0.7
		s0.1-0.4,0.1-0.5l1-4.5l9-0.1l-1.5,6.6c-0.3,1.2-0.7,2.3-1.2,3.2c-0.5,0.9-1,1.6-1.7,2.3c-0.6,0.6-1.3,1.1-2,1.5
		c-0.7,0.4-1.4,0.7-2.1,0.9c-0.6,0.2-1.1,0.4-1.5,0.5s-0.9,0.2-1.3,0.2c-0.4,0.1-0.8,0.1-1.1,0.1h-3.5c-0.6,0-1.1-0.1-1.7-0.2
		c-0.5-0.1-1.1-0.2-1.7-0.5c-0.6-0.2-1.2-0.5-1.7-0.9c-0.8-0.6-1.5-1.5-2-2.6c-0.5-1.1-0.5-2.6-0.1-4.4l7.2-32.6v-0.1
		c0,0,0.1-0.4,0.3-1.1c0.2-0.7,0.6-1.4,1.1-2.3c0.5-0.8,1.2-1.7,2.1-2.6c0.9-0.9,2-1.6,3.4-2.1c0.6-0.2,1.2-0.4,1.9-0.5
		c0.6-0.1,1.3-0.2,2.1-0.2h3.4c0.6,0,1.2,0,1.8,0.1c0.5,0.1,1.1,0.3,1.6,0.5c0.6,0.2,1.2,0.5,1.7,0.9c0.8,0.6,1.4,1.5,1.9,2.6
		c0.5,1.1,0.5,2.6,0.1,4.5L262.4,25.8z"/>
	<path class="st0" d="M287.3,25.8l-9,0.1l1-4.2c0.1-0.6,0.2-1,0-1.3c-0.1-0.3-0.3-0.5-0.5-0.7c-0.2-0.1-0.5-0.2-0.8-0.3
		c-0.4,0-0.8,0.1-1,0.3c-0.3,0.2-0.5,0.4-0.7,0.7c-0.2,0.3-0.3,0.5-0.4,0.7c-0.1,0.2-0.1,0.4-0.2,0.5l-6.2,28.3V50c0,0,0,0.2,0,0.4
		c0,0.2,0,0.4,0,0.7c0,0.3,0.2,0.5,0.4,0.7c0.2,0.2,0.5,0.3,0.9,0.3s0.8-0.1,1-0.3c0.3-0.2,0.5-0.4,0.6-0.7c0.2-0.3,0.3-0.5,0.4-0.7
		s0.1-0.4,0.1-0.5l1-4.5l9-0.1l-1.5,6.6c-0.3,1.2-0.7,2.3-1.2,3.2c-0.5,0.9-1,1.6-1.7,2.3c-0.6,0.6-1.3,1.1-2,1.5
		c-0.7,0.4-1.4,0.7-2.1,0.9c-0.6,0.2-1.1,0.4-1.5,0.5s-0.9,0.2-1.3,0.2c-0.4,0.1-0.8,0.1-1.1,0.1h-3.5c-0.6,0-1.1-0.1-1.7-0.2
		c-0.5-0.1-1.1-0.2-1.7-0.5c-0.6-0.2-1.2-0.5-1.7-0.9c-0.8-0.6-1.5-1.5-2-2.6c-0.5-1.1-0.5-2.6-0.1-4.4l7.2-32.6v-0.1
		c0,0,0.1-0.4,0.3-1.1c0.2-0.7,0.6-1.4,1.1-2.3c0.5-0.8,1.2-1.7,2.1-2.6c0.9-0.9,2-1.6,3.4-2.1c0.6-0.2,1.2-0.4,1.9-0.5
		c0.6-0.1,1.3-0.2,2.1-0.2h3.4c0.6,0,1.2,0,1.8,0.1c0.5,0.1,1.1,0.3,1.6,0.5c0.6,0.2,1.2,0.5,1.7,0.9c0.8,0.6,1.4,1.5,1.9,2.6
		c0.5,1.1,0.5,2.6,0.1,4.5L287.3,25.8z"/>
</g>
</svg>
